<svg xmlns="http://www.w3.org/2000/svg" version="1.1" xmlns:xlink="http://www.w3.org/1999/xlink" xmlns:svgjs="http://svgjs.dev/svgjs" width="100%" height="100%" viewBox="0 0 1000 600"><rect width="1000" height="600" x="0" y="0" fill="#4a17ee"/><g><rect width="333.3333333333333" height="333.3333333333333" y="270.95029311294377" fill="#efefef" transform="matrix(0.5025570063599986,0,0,0.5025570063599986,0,80.07255864420152)" x="248.72805786132812"/><path d="M398.7020194671961 512.6169770161866L398.7020194671961 512.6169770161866Q377.7124355778287 512.6169770161866 367.1134769637189 502.955518426912Q356.51451834960903 493.29405983763746 356.51451834960903 472.30447594827L356.51451834960903 472.30447594827Q356.51451834960903 466.3148924562669 358.2072267277838 454.1273921334084Q359.8999351059586 441.9398918105499 362.60826851103826 425.6117663780023Q365.34264358347446 409.30968261281123 368.7020186724675 391.31489046944534L368.7020186724675 391.31489046944534L358.2072267277838 376.3148900720811Q367.94681031912796 370.4815565842172 376.48847721207153 366.5492648133803Q385.0301441050151 362.6169730425435 393.6499360000283 362.6169730425435L393.6499360000283 362.6169730425435Q401.6968112131977 362.6169730425435 405.4468113125388 365.71593145797124Q409.1968114118798 368.8148898733989 409.1968114118798 375.924265061733L409.1968114118798 375.924265061733Q409.1968114118798 380.7940568574051 408.07701971554883 388.58051539700915Q406.95722801921784 396.3669739366132 405.3686863104691 405.3773908419744Q403.7801446017205 414.3617660799791 401.90514455204993 422.98155797499226L401.90514455204993 422.98155797499226L403.7801446017205 423.91905799982754Q410.5249364470631 410.611765980638 420.18639503633773 403.8669741352954Q429.82181195825575 397.1221822899527 443.1551456448018 397.1221822899527L443.1551456448018 397.1221822899527Q453.2593125791375 397.1221822899527 460.2124377633324 403.03364077988624Q467.13952128017075 408.91905760246317 470.70722970801614 418.7628078632335Q474.2749381358615 428.60655812400387 474.2749381358615 440.42947510387086L474.2749381358615 440.42947510387086Q474.2749381358615 458.241975575741 467.3218129516665 471.73155926642625Q460.39472943482815 485.24718462446805 449.0405624673788 494.33572653189884Q437.71243716728594 503.42426843932964 424.48327015016605 508.03364356143635Q411.28014480040264 512.6169770161866 398.7020194671961 512.6169770161866ZM393.6499360000283 490.87218477347966L393.6499360000283 490.87218477347966Q404.71764462655574 490.87218477347966 413.337436521569 486.83572633321666Q421.9572284165821 482.7992678929537 428.0509785780114 476.0544760476111Q434.1447287394406 469.30968420226844 437.32181215693794 461.15864231967294Q440.52493724179175 452.98155876972083 440.52493724179175 444.7523918850557L440.52493724179175 444.7523918850557Q440.52493724179175 439.67426675053133 438.64993719212123 434.80447495485924Q436.77493714245065 429.93468315918716 433.31139538403147 426.7315580743333Q429.82181195825575 423.554474656836 425.3426451729317 423.554474656836L425.3426451729317 423.554474656836Q418.38951998873677 423.554474656836 413.2332698521428 427.4867664276728Q408.07701971554883 431.4190581985097 404.61347795712965 437.9034333702869Q401.1499361987104 444.3617668747077 398.988477808118 452.14822541431175Q396.8270194175256 459.9346839539158 395.60306105176846 467.51280915466754Q394.4051443533678 475.1169760227758 394.01451934301974 481.3148928536312Q393.6499360000283 487.4867680171301 393.6499360000283 490.87218477347966Z " fill="#4a17ee" transform="matrix(0.5025570063599986,0,0,0.5025570063599986,0,80.07255864420152)"/><path d="M698.8105702493023 481.4288488346493L698.8105702493023 481.4288488346493Q682.1851579871282 481.4288488346493 673.7899436066009 473.7762086990827Q665.3947292260738 466.1235685635162 665.3947292260738 449.498156301342L665.3947292260738 449.498156301342Q665.3947292260738 444.7539319585379 666.7354882794749 435.1004667740497Q668.076247332876 425.44700158956147 670.221461818318 412.5138334898304Q672.3873033661198 399.6012924524594 675.048194410562 385.3479923616872L675.048194410562 385.3479923616872L666.7354882794749 373.4668044423171Q674.4500096021216 368.84634247367313 681.2156860562072 365.7316560573105Q687.981362510293 362.6169696409478 694.8089201514589 362.6169696409478L694.8089201514589 362.6169696409478Q701.1826824207044 362.6169696409478 704.1529794005469 365.07159006178995Q707.1232763803894 367.526210482632 707.1232763803894 373.1573985069168L707.1232763803894 373.1573985069168Q707.1232763803894 377.0146591682401 706.2363126989087 383.18215081388536Q705.3493490174278 389.3496424595306 704.0910982134668 396.4866060360967Q702.8328474095057 403.6029425503028 701.3476989195844 410.43050019146864L701.3476989195844 410.43050019146864L702.8328474095057 411.17307443642926Q708.1752565607503 400.6326455704603 715.8278966963169 395.2902364192157Q723.4599097695234 389.94782726797115 734.0209656978524 389.94782726797115L734.0209656978524 389.94782726797115Q742.0242658935392 389.94782726797115 747.5316915436639 394.6301704236951Q753.0184901314285 399.29188651705914 755.844397674751 407.08891608914575Q758.6703052180734 414.8859456612324 758.6703052180734 424.2506319726804L758.6703052180734 424.2506319726804Q758.6703052180734 438.35954262693247 753.1628795679487 449.0443609294216Q747.676080980184 459.74980629427074 738.6826817912163 466.9486510579169Q729.7099096646086 474.14749582156304 719.2313619857198 477.79848585928613Q708.7734413691908 481.4288488346493 698.8105702493023 481.4288488346493ZM694.8089201514589 464.20525176403453L694.8089201514589 464.20525176403453Q703.5754216544664 464.20525176403453 710.4029792956321 461.0080570982318Q717.230536936798 457.8108624324291 722.0572695290421 452.4684532811845Q726.8840021212862 447.12604412993994 729.4005037292084 440.66977361125447Q731.9376323994906 434.19287603020894 731.9376323994906 427.6747243244434L731.9376323994906 427.6747243244434Q731.9376323994906 423.6524471642399 730.4524839095693 419.79518650291664Q728.9673354196481 415.9379258415933 726.2239361257657 413.4007971713112Q723.4599097695234 410.884295563389 719.9120550436003 410.884295563389L719.9120550436003 410.884295563389Q714.4046293934756 410.884295563389 710.3204710461921 413.9989819797517Q706.2363126989087 417.11366839611435 703.4929134050262 422.24980692375874Q700.749514111144 427.3653183890431 699.0374679352625 433.53281003468834Q697.325421759381 439.7003016803336 696.3559498284602 445.7027768270988Q695.4071049598994 451.7258790362239 695.0976990244991 456.6351198779081Q694.8089201514589 461.52373365723224 694.8089201514589 464.20525176403453ZM814.5077630266411 481.4288488346493L814.5077630266411 481.4288488346493Q800.6876312454292 481.4288488346493 791.1991825598211 476.51960799296506Q781.6901068118531 471.63099421364086 776.8633742196089 462.7819844611933Q772.0366416273648 453.9536017711058 772.0366416273648 442.3611927247759L772.0366416273648 442.3611927247759Q772.0366416273648 430.3356153688856 776.4095788476885 420.4552524984372Q780.8031431303723 410.5955166903488 788.662053889539 403.45855311378267Q796.5415917110657 396.3215895372166 806.9995123275946 392.46432887589333Q817.4780600064836 388.60706821457 829.648026798894 388.60706821457L829.648026798894 388.60706821457Q844.0663433885463 388.60706821457 850.8939010297121 395.00145754617546Q857.721458670878 401.3752198154209 857.721458670878 411.02868499990916L857.721458670878 411.02868499990916Q857.721458670878 419.3413911309962 852.2965412701933 426.7052523935225Q846.8922509318686 434.0484865936888 834.8460465136184 438.58644031289265Q822.8204691577281 443.1037669697365 802.770964543791 443.2687834686167L802.770964543791 443.2687834686167Q803.2247599157114 452.75723215422477 807.1645288264748 458.1821495549094Q811.0836706748781 463.607066955594 817.0242646345632 463.607066955594L817.0242646345632 463.607066955594Q819.9945616144057 463.607066955594 823.2742645296485 462.20442671511285Q826.5333403825314 460.7811594122716 828.7610631174132 457.15079643690854Q830.9887858522951 453.4998063991854 830.9887858522951 447.12604412993994L830.9887858522951 447.12604412993994Q841.0960464087037 447.12604412993994 846.8922509318686 449.35376686482186Q852.6678283926736 451.58148959970373 852.6678283926736 457.3776941228687L852.6678283926736 457.3776941228687Q852.6678283926736 462.7201032741133 848.0679934863897 468.28941011131803Q843.4681585801058 473.8587169485228 834.9285547630585 477.633469360406Q826.3889509460112 481.4288488346493 814.5077630266411 481.4288488346493ZM804.1117235971922 431.38759554924656L804.1117235971922 431.38759554924656Q814.9615583985615 430.48000480540577 821.4797101043271 427.3653183890431Q828.0184888724525 424.2506319726804 830.9887858522951 420.248981874837Q833.9590828321377 416.22670471463357 833.9590828321377 412.82323942523067L833.9590828321377 412.82323942523067Q833.9590828321377 409.8529424453881 832.1851554691762 407.91399858354646Q830.3906010438545 405.97505472170485 827.1315251909718 405.97505472170485L827.1315251909718 405.97505472170485Q821.7891160397272 405.97505472170485 817.1892811334434 409.687925946508Q812.5688191647994 413.4007971713112 809.2272350624766 419.2795099439162Q805.8856509601537 425.1375956541612 804.1117235971922 431.38759554924656ZM897.0778936537915 512.6169671229959L897.0778936537915 512.6169671229959Q890.2503360126257 512.6169671229959 884.5985209259809 510.67802326115424Q878.9673329016961 508.7597064616726 875.6257487993732 505.0468352368694Q872.2841646970503 501.33396401206625 872.2841646970503 496.13594429734184L872.2841646970503 496.13594429734184Q872.2841646970503 492.856241382099 873.6868049375316 488.9989807207757Q875.1100722403728 485.14172005945244 878.3691480932555 480.83066402620875L878.3691480932555 480.83066402620875Q881.7932404450185 485.7399048678929 886.7643624737827 488.33891472525517Q891.735484502547 490.93792458261737 898.872448079113 490.93792458261737L898.872448079113 490.93792458261737Q904.2148572303577 490.93792458261737 909.7016558181223 487.8232381662547Q915.209081468247 484.687924687532 919.4995104391306 478.0872647323264Q923.8105664723744 471.48660477712076 925.6051208976959 460.9255488487917L925.6051208976959 460.9255488487917L924.1199724077746 460.1829746038311Q918.61254675765 468.35129129839805 911.3311937445637 472.0022813361212Q904.0704677938375 475.6326443114843 897.0778936537915 475.6326443114843L897.0778936537915 475.6326443114843Q888.7651875227044 475.6326443114843 882.7420853135793 471.1771988417205Q876.7396101668141 466.7217533719567 873.5424155010114 458.78033436334994Q870.3452208352087 450.83891535474316 870.3452208352087 440.29848648877413L870.3452208352087 440.29848648877413Q870.3452208352087 431.53198498576666 873.6249237504514 422.39419636027884Q876.8839996033342 413.256407734791 883.7115572445001 405.6037675992245Q890.539114885666 397.971754526018 901.162052001075 393.28941137029403Q911.7849891164841 388.60706821457 926.6364740156968 388.60706821457L926.6364740156968 388.60706821457Q929.6067709955394 388.60706821457 932.3501702894216 388.8339659005302Q935.093569583304 389.0608635864904 938.3732724985468 389.803437831451L938.3732724985468 389.803437831451Q938.662051371587 391.2885863213723 938.9714573069873 393.1450219337739Q939.2602361800275 395.00145754617546 939.4046256165477 397.0641637821772L939.4046256165477 397.0641637821772Q942.9731074048307 394.5476621742551 946.6034703801938 393.43380080681413Q950.2544604179169 392.3199394393732 953.5135362707997 392.3199394393732L953.5135362707997 392.3199394393732Q959.0209619209244 392.3199394393732 961.3930740923264 395.06333873325553Q963.7651862637284 397.80673802713784 963.7651862637284 403.45855311378267L963.7651862637284 403.45855311378267Q963.7651862637284 412.65822292635056 962.4244272103273 424.2506319726804Q961.0836681569263 435.84304101901034 958.1133711770836 448.1573972479408Q955.143074197241 460.49238053923136 950.1719521684769 471.9197730866811Q945.2008301397126 483.3677926964909 937.8575959395464 492.56746250905877Q930.49373467702 501.7671323216266 920.4071011829715 507.1920497223112Q910.2998406265629 512.6169671229959 897.0778936537915 512.6169671229959ZM913.1257481698852 453.06663808962503L913.1257481698852 453.06663808962503Q916.8386193946884 453.06663808962503 920.8402694925319 451.12769422778337Q924.8625466527352 449.2093774283017 928.2660119421382 445.0427108315782L928.2660119421382 445.0427108315782Q930.0605663674597 435.3892456470899 931.6901042939011 424.3950214092006Q933.3196422203425 413.4007971713112 934.8047907102638 403.31416367726257L934.8047907102638 403.31416367726257Q923.377398162814 403.31416367726257 915.209081468247 407.91399858354646Q907.04076477368 412.5138334898304 902.7297087404363 420.0220841888768Q898.4186527071927 427.5097078255632 898.4186527071927 436.1318198920506L898.4186527071927 436.1318198920506Q898.4186527071927 443.84634121469713 902.7915899275164 448.4668031833411Q907.1851542102002 453.06663808962503 913.1257481698852 453.06663808962503ZM1001.6364727567208 512.6169671229959L1001.6364727567208 512.6169671229959Q991.384822763792 512.6169671229959 984.412875686106 508.16152165323206Q977.42030154606 503.70607618346827 977.42030154606 495.6821489254215L977.42030154606 495.6821489254215Q977.42030154606 492.42307307253867 978.7610605994612 488.71020184773545Q980.1018196528623 484.9973306229323 982.9277271961848 480.83066402620875L982.9277271961848 480.83066402620875Q986.3311924855877 485.7399048678929 991.0960438907518 488.33891472525517Q995.8402682335559 490.93792458261737 1000.74950907524 490.93792458261737L1000.74950907524 490.93792458261737Q1006.545713598405 490.93792458261737 1011.8881227496495 487.08066392129405Q1017.230531900894 483.2027761976108 1020.4896077537769 474.7456806300035L1020.4896077537769 474.7456806300035Q1016.7767365289737 476.08643968340465 1013.5176606760909 476.6846244918452Q1010.2585848232081 477.2621822379257 1007.2882878433657 477.2621822379257L1007.2882878433657 477.2621822379257Q999.553139458359 477.2621822379257 994.8089151155549 473.1780238906422Q990.0440637103909 469.09386554335873 989.3014894654302 461.37934422071214L989.3014894654302 461.37934422071214Q988.2701363474293 451.58148959970373 987.9813574743891 441.04106073373475Q987.6719515389889 430.48000480540577 986.7849878575081 421.8785198012784L986.7849878575081 421.8785198012784Q985.7536347395072 411.7712592448698 982.4739318242644 405.08809104022407Q979.2148559713817 398.40492283557836 974.903799938138 395.00145754617546L974.903799938138 395.00145754617546Q978.472281726421 391.72175463093265 982.4120506371844 390.17472495393133Q986.3311924855877 388.60706821457 992.436802944153 388.60706821457L992.436802944153 388.60706821457Q999.8625453937593 388.60706821457 1004.5242614871232 393.0625136843338Q1009.2066046428472 397.5179591540976 1011.7437333131294 405.6037675992245Q1014.2602349210515 413.71020310671145 1015.2297068519724 424.4775296586406Q1016.1991787828932 435.2448562105698 1016.1991787828932 447.86861837490056L1016.1991787828932 447.86861837490056Q1016.1991787828932 449.6425457378621 1016.1166705334531 453.3554169626653Q1016.0341622840131 457.06828818746845 1015.7453834109729 460.7811594122716L1015.7453834109729 460.7811594122716L1024.3674954774601 460.7811594122716Q1026.7396076488621 454.24238064414607 1029.4004986933046 446.8166381945397Q1032.0820168001069 439.39089574493335 1034.3922477844287 431.75888267172684Q1036.6818517063907 424.1062425361603 1038.1670001963118 417.0517872090343Q1039.6521486862332 409.9973318819083 1039.6521486862332 404.48990623178355L1039.6521486862332 404.48990623178355Q1039.6521486862332 401.2308303789008 1038.9920826907128 399.0031076440189Q1038.311389632832 396.77538490913696 1037.4244259513514 395.00145754617546L1037.4244259513514 395.00145754617546Q1042.6224456660757 391.72175463093265 1047.67607594428 390.17472495393133Q1052.7297062224843 388.60706821457 1056.731356320328 388.60706821457L1056.731356320328 388.60706821457Q1063.5589139614935 388.60706821457 1066.7561086272963 393.2069031208539Q1069.953303293099 397.80673802713784 1069.953303293099 405.23248047674423L1069.953303293099 405.23248047674423Q1069.953303293099 410.7399061268689 1068.3237653666577 417.93875089051505Q1066.6942274402163 425.1375956541612 1064.2396070193743 432.7902357897277Q1061.784986598532 440.44287592529423 1059.33036617769 447.2704335664601Q1056.875745756848 454.0979912076259 1055.2462078304065 458.86284261278996L1055.2462078304065 458.86284261278996Q1048.1298713162005 479.34551553628745 1039.2808615637528 491.0823140191375Q1030.4524788736653 502.8191125019875 1020.8608948762572 507.70772628131164Q1011.289937941209 512.6169671229959 1001.6364727567208 512.6169671229959ZM1097.717329229683 481.4288488346493L1097.717329229683 481.4288488346493Q1090.8897715885169 481.4288488346493 1086.3724449316733 476.8908951154454Q1081.8344912124692 472.3735684586015 1081.8344912124692 465.83478969047593L1081.8344912124692 465.83478969047593Q1081.8344912124692 460.7811594122716 1084.3509928203914 456.552611628468Q1086.8881214906735 452.3240638446644 1091.116669274477 449.6425457378621Q1095.3452170582807 446.98165469341984 1100.5432367730052 446.98165469341984L1100.5432367730052 446.98165469341984Q1107.370794414171 446.98165469341984 1111.908748133375 451.4989813502637Q1116.4467018525788 456.0369350694676 1116.4467018525788 462.5757138375931L1116.4467018525788 462.5757138375931Q1116.4467018525788 467.46432761691733 1113.9095731822965 471.775383650161Q1111.3930715743745 476.08643968340465 1107.164523790571 478.747330727847Q1102.9153489444072 481.4288488346493 1097.717329229683 481.4288488346493ZM1149.4087475038868 481.4288488346493L1149.4087475038868 481.4288488346493Q1140.044061192439 481.4288488346493 1136.0424110945955 476.6846244918452Q1132.040760996752 471.9197730866811 1132.040760996752 463.00888214715354L1132.040760996752 463.00888214715354Q1132.040760996752 459.89419573079084 1132.9277246782328 453.43792521210537Q1133.8146883597137 446.98165469341984 1135.2173286001948 439.01960862245306Q1136.640595903036 431.0781896138463 1138.2701338294773 423.0542623557994Q1139.899671755919 415.0509621601126 1141.38482024584 408.80096226502724L1141.38482024584 408.80096226502724L1133.6702989231935 396.9197743456571Q1139.7552823193987 393.51630905625416 1146.8097376465248 391.0616886354121Q1153.8641929736507 388.60706821457 1161.145545986737 388.60706821457L1161.145545986737 388.60706821457Q1167.3749188194622 388.60706821457 1170.3452157993047 391.6598734438526Q1173.3155127791474 394.6920516107752 1173.3155127791474 399.89007132549966L1173.3155127791474 399.89007132549966Q1173.3155127791474 403.7473319868229 1172.2841596611465 407.91399858354646Q1171.2321794807856 412.08066518027005 1169.9120474897445 415.0509621601126L1169.9120474897445 415.0509621601126L1171.3971959796659 415.7935364050732Q1180.143070420313 400.7770350069804 1190.539109849762 394.6920516107752Q1200.935149279211 388.60706821457 1211.7849840805802 388.60706821457L1211.7849840805802 388.60706821457Q1220.8402644566277 388.60706821457 1225.2957099263917 392.98000543489377Q1229.7511553961554 397.3735697175775 1229.7511553961554 406.5732395301453L1229.7511553961554 406.5732395301453Q1229.7511553961554 414.59716678819217 1227.6059409107138 423.5905659771599Q1225.4400993629117 432.56333810376753 1223.21237662803 441.98990560229555Q1220.984653893148 451.43710016318363 1220.984653893148 460.6367699757515L1220.984653893148 460.6367699757515Q1220.984653893148 469.83643978831935 1224.1199673718706 474.14749582156304L1224.1199673718706 474.14749582156304Q1216.240429550344 481.4288488346493 1207.7833339827366 481.4288488346493L1207.7833339827366 481.4288488346493Q1198.418647671289 481.4288488346493 1194.4169975734453 476.6846244918452Q1190.3947204132419 471.9197730866811 1190.3947204132419 463.00888214715354L1190.3947204132419 463.00888214715354Q1190.3947204132419 458.12026836782934 1191.735479466643 452.09716615870417Q1193.0762385200442 446.07406394957906 1194.8501658830057 439.84469111685377Q1196.6447203083271 433.6153182841284 1197.9648522993684 428.10789263400375Q1199.3056113527696 422.621094046239 1199.3056113527696 418.5988168860356L1199.3056113527696 418.5988168860356Q1199.3056113527696 415.48413046967295 1198.1917499853284 413.71020310671145Q1197.0778886178878 411.9156486813899 1194.2519810745653 411.9156486813899L1194.2519810745653 411.9156486813899Q1190.2503309767217 411.9156486813899 1184.9079218254772 415.48413046967295Q1179.5655126742327 419.052612257956 1174.4293741465883 425.5088827766415Q1169.3138626813038 431.965153295327 1165.972278578981 440.87604423485465Q1162.6306944766582 449.7869351743822 1162.6306944766582 460.6367699757515L1162.6306944766582 460.6367699757515Q1162.6306944766582 469.83643978831935 1165.7453808930209 474.14749582156304L1165.7453808930209 474.14749582156304Q1157.865843071494 481.4288488346493 1149.4087475038868 481.4288488346493ZM1261.991253864863 481.4288488346493L1261.991253864863 481.4288488346493Q1252.626567553415 481.4288488346493 1248.6249174555717 476.6846244918452Q1244.602640295368 471.9197730866811 1244.602640295368 463.00888214715354L1244.602640295368 463.00888214715354Q1244.602640295368 459.89419573079084 1245.4896039768491 453.43792521210537Q1246.3971947206896 446.98165469341984 1247.799834961171 439.01960862245306Q1249.202475201652 431.0781896138463 1250.8526401904535 423.0542623557994Q1252.4821781168948 415.0509621601126 1253.9673266068162 408.80096226502724L1253.9673266068162 408.80096226502724L1246.2321782218096 396.9197743456571Q1252.3377886803748 393.51630905625416 1259.3922440075007 391.0616886354121Q1266.4466993346268 388.60706821457 1273.707425285353 388.60706821457L1273.707425285353 388.60706821457Q1279.9574251804383 388.60706821457 1282.9277221602808 391.6598734438526Q1285.8980191401233 394.6920516107752 1285.8980191401233 399.89007132549966L1285.8980191401233 399.89007132549966Q1285.8980191401233 403.7473319868229 1284.8460389597626 407.91399858354646Q1283.8146858417617 412.08066518027005 1282.4739267883606 415.0509621601126L1282.4739267883606 415.0509621601126L1283.9590752782817 415.7935364050732Q1292.7255767812894 400.7770350069804 1303.121616210738 394.6920516107752Q1313.517655640187 388.60706821457 1324.3674904415564 388.60706821457L1324.3674904415564 388.60706821457Q1333.422770817604 388.60706821457 1337.8782162873676 392.98000543489377Q1342.3336617571317 397.3735697175775 1342.3336617571317 406.5732395301453L1342.3336617571317 406.5732395301453Q1342.3336617571317 414.59716678819217 1340.1678202093299 423.5905659771599Q1338.0226057238879 432.56333810376753 1335.794882989006 441.98990560229555Q1333.5671602541242 451.43710016318363 1333.5671602541242 460.6367699757515L1333.5671602541242 460.6367699757515Q1333.5671602541242 469.83643978831935 1336.6818466704867 474.14749582156304L1336.6818466704867 474.14749582156304Q1328.8229359113202 481.4288488346493 1320.3452132813527 481.4288488346493L1320.3452132813527 481.4288488346493Q1311.0011540322648 481.4288488346493 1306.9788768720614 476.6846244918452Q1302.977226774218 471.9197730866811 1302.977226774218 463.00888214715354L1302.977226774218 463.00888214715354Q1302.977226774218 458.12026836782934 1304.3179858276192 452.09716615870417Q1305.6381178186602 446.07406394957906 1307.4326722439819 439.84469111685377Q1309.2065996069432 433.6153182841284 1310.5473586603443 428.10789263400375Q1311.8881177137457 422.621094046239 1311.8881177137457 418.5988168860356L1311.8881177137457 418.5988168860356Q1311.8881177137457 415.48413046967295 1310.7742563463046 413.71020310671145Q1309.6603949788637 411.9156486813899 1306.8344874355412 411.9156486813899L1306.8344874355412 411.9156486813899Q1302.8328373376978 411.9156486813899 1297.4698011240935 415.48413046967295Q1292.1273919728487 419.052612257956 1287.0118805075645 425.5088827766415Q1281.87574197992 431.965153295327 1278.534157877597 440.87604423485465Q1275.1925737752742 449.7869351743822 1275.1925737752742 460.6367699757515L1275.1925737752742 460.6367699757515Q1275.1925737752742 469.83643978831935 1278.3278872539968 474.14749582156304L1278.3278872539968 474.14749582156304Q1270.4483494324702 481.4288488346493 1261.991253864863 481.4288488346493ZM1398.1711195656992 481.4288488346493L1398.1711195656992 481.4288488346493Q1384.3509877844876 481.4288488346493 1374.8625390988793 476.51960799296506Q1365.3534633509112 471.63099421364086 1360.5267307586673 462.7819844611933Q1355.699998166423 453.9536017711058 1355.699998166423 442.3611927247759L1355.699998166423 442.3611927247759Q1355.699998166423 430.3356153688856 1360.0729353867468 420.4552524984372Q1364.4664996694305 410.5955166903488 1372.3254104285973 403.45855311378267Q1380.2049482501238 396.3215895372166 1390.6628688666528 392.46432887589333Q1401.1414165455417 388.60706821457 1413.311383337952 388.60706821457L1413.311383337952 388.60706821457Q1427.7296999276045 388.60706821457 1434.5572575687702 395.00145754617546Q1441.384815209936 401.3752198154209 1441.384815209936 411.02868499990916L1441.384815209936 411.02868499990916Q1441.384815209936 419.3413911309962 1435.9598978092515 426.7052523935225Q1430.5556074709268 434.0484865936888 1418.5094030526766 438.58644031289265Q1406.4838256967864 443.1037669697365 1386.4343210828492 443.2687834686167L1386.4343210828492 443.2687834686167Q1386.8881164547697 452.75723215422477 1390.827885365533 458.1821495549094Q1394.7470272139362 463.607066955594 1400.6876211736214 463.607066955594L1400.6876211736214 463.607066955594Q1403.657918153464 463.607066955594 1406.937621068707 462.20442671511285Q1410.1966969215896 460.7811594122716 1412.4244196564714 457.15079643690854Q1414.6521423913532 453.4998063991854 1414.6521423913532 447.12604412993994L1414.6521423913532 447.12604412993994Q1424.7594029477618 447.12604412993994 1430.5556074709268 449.35376686482186Q1436.331184931732 451.58148959970373 1436.331184931732 457.3776941228687L1436.331184931732 457.3776941228687Q1436.331184931732 462.7201032741133 1431.7313500254477 468.28941011131803Q1427.131515119164 473.8587169485228 1418.5919113021166 477.633469360406Q1410.0523074850694 481.4288488346493 1398.1711195656992 481.4288488346493ZM1387.7750801362504 431.38759554924656L1387.7750801362504 431.38759554924656Q1398.6249149376197 430.48000480540577 1405.1430666433853 427.3653183890431Q1411.681845411511 424.2506319726804 1414.6521423913532 420.248981874837Q1417.622439371196 416.22670471463357 1417.622439371196 412.82323942523067L1417.622439371196 412.82323942523067Q1417.622439371196 409.8529424453881 1415.8485120082344 407.91399858354646Q1414.053957582913 405.97505472170485 1410.79488173003 405.97505472170485L1410.79488173003 405.97505472170485Q1405.4524725787855 405.97505472170485 1400.8526376725017 409.687925946508Q1396.2321757038576 413.4007971713112 1392.8905916015347 419.2795099439162Q1389.549007499212 425.1375956541612 1387.7750801362504 431.38759554924656ZM1473.769303115164 481.4288488346493L1473.769303115164 481.4288488346493Q1464.714022739116 481.4288488346493 1460.8361350154328 475.7770337480044Q1456.9788743541094 470.1458457237196 1456.9788743541094 458.5534366773897L1456.9788743541094 458.5534366773897Q1456.9788743541094 455.29436082450695 1457.80395684851 448.89997149290144Q1458.608412280551 442.52620922365605 1459.9491713339519 434.35789252908904Q1461.2899303873533 426.1895758345221 1462.9194683137944 417.34056608207453Q1464.549006240236 408.512183391987 1466.0341547301573 400.1994772608999Q1467.5193032200784 391.8661440674528 1468.7156728369596 385.3479923616872L1468.7156728369596 385.3479923616872L1460.4029667058724 373.4668044423171Q1468.261877465039 368.84634247367313 1475.398841041605 365.7316560573105Q1482.5358046181714 362.6169696409478 1489.6521411323774 362.6169696409478L1489.6521411323774 362.6169696409478Q1495.9021410274627 362.6169696409478 1498.3361343859447 365.07159006178995Q1500.790754806787 367.526210482632 1500.790754806787 373.1573985069168L1500.790754806787 373.1573985069168Q1500.790754806787 378.35541822164123 1499.4499957533858 386.1524477937279Q1498.1298637623445 393.9494773658146 1496.1909199005029 403.0872659913024Q1494.2519760386613 412.22505461679015 1492.2511509897395 421.8785198012784Q1490.2503259408177 431.53198498576666 1488.9095668874168 440.44287592529423Q1487.5688078340154 449.35376686482186 1487.5688078340154 456.6351198779081L1487.5688078340154 456.6351198779081Q1487.5688078340154 462.410697338713 1488.6826692014565 466.9486510579169Q1489.7965305688974 471.48660477712076 1492.1892698026595 474.14749582156304L1492.1892698026595 474.14749582156304Q1481.7932303732107 481.4288488346493 1473.769303115164 481.4288488346493ZM1527.0902593158094 481.4288488346493L1527.0902593158094 481.4288488346493Q1520.2420746122834 481.4288488346493 1515.7247479554396 476.8908951154454Q1511.1867942362358 472.3735684586015 1511.1867942362358 465.83478969047593L1511.1867942362358 465.83478969047593Q1511.1867942362358 460.7811594122716 1513.7239229065178 456.552611628468Q1516.24042451444 452.3240638446644 1520.4689722982437 449.6425457378621Q1524.6975200820473 446.98165469341984 1529.8955397967718 446.98165469341984L1529.8955397967718 446.98165469341984Q1536.7437245002975 446.98165469341984 1541.2610511571415 451.4989813502637Q1545.7990048763454 456.0369350694676 1545.7990048763454 462.5757138375931L1545.7990048763454 462.5757138375931Q1545.7990048763454 467.46432761691733 1543.261876206063 471.775383650161Q1540.745374598141 476.08643968340465 1536.5168268143375 478.747330727847Q1532.2882790305337 481.4288488346493 1527.0902593158094 481.4288488346493ZM1596.7272218432286 481.4288488346493L1596.7272218432286 481.4288488346493Q1582.7833276878569 481.4288488346493 1574.5325027438498 479.28363434920743Q1566.2816777998428 477.1177928014056 1562.7338230739197 473.40492157660236Q1559.1653412856367 469.6920503517992 1559.1653412856367 465.2366048820354L1559.1653412856367 465.2366048820354Q1559.1653412856367 461.8331395926325 1561.0217768980383 457.3776941228687Q1562.8782125104399 452.92224865310493 1566.4466942987228 448.89997149290144L1566.4466942987228 448.89997149290144Q1568.963195906645 452.3240638446644 1573.1917436904487 455.21185257506687Q1577.4202914742523 458.12026836782934 1582.4739217524566 459.8116874813508Q1587.527552030661 461.52373365723224 1592.271776373465 461.52373365723224L1592.271776373465 461.52373365723224Q1597.4697960881895 461.52373365723224 1601.636462684913 459.06911323639014Q1605.8031292816365 456.6351198779081 1607.1232612726776 450.694525918223L1607.1232612726776 450.694525918223Q1584.2684761777782 448.0130078114207 1574.3056050578896 440.5047571123743Q1564.3633610003612 433.0171334756879 1564.3633610003612 419.6507970663965L1564.3633610003612 419.6507970663965Q1564.3633610003612 411.17307443642926 1568.3650110982044 405.23248047674423Q1572.3872882584078 399.29188651705914 1579.1323376501336 395.661523541696Q1585.8980141042193 392.0311605663329 1594.582007357787 390.31911439045143Q1603.2660006113542 388.60706821457 1612.6306869228024 388.60706821457L1612.6306869228024 388.60706821457Q1621.3971884258099 388.60706821457 1628.2247460669755 390.917299198892Q1635.0523037081414 393.2069031208539 1638.9095643694648 397.0641637821772Q1642.766825030788 400.94205150586055 1642.766825030788 405.97505472170485L1642.766825030788 405.97505472170485Q1642.766825030788 413.1120182982709 1637.6513135655036 416.8248895230741Q1632.5358021002194 420.53776074787726 1625.9970233320937 420.53776074787726L1625.9970233320937 420.53776074787726Q1621.54157786233 420.53776074787726 1616.6323370206458 417.5674637680347Q1611.7437232413215 414.59716678819217 1608.773426261479 408.3677939554669L1608.773426261479 408.3677939554669Q1603.2660006113542 409.9973318819083 1600.0069247584715 413.02951004883084Q1596.7272218432286 416.08231527811347 1594.2107202353068 421.7341303647583L1594.2107202353068 421.7341303647583Q1611.145538432881 424.2506319726804 1621.0877824904096 428.10789263400375Q1631.050653610298 431.965153295327 1635.4235908306218 437.843866067932Q1639.7965280509454 443.70195177817703 1639.7965280509454 452.3240638446644L1639.7965280509454 452.3240638446644Q1639.7965280509454 459.1516214858302 1636.764349884023 464.20525176403453Q1633.7115446547402 469.25888204223884 1628.8229308754162 472.51795789512164Q1623.913690033732 475.7770337480044 1618.117485510567 477.79848585928613Q1612.3212809874021 479.7993109082079 1606.6900929631172 480.60376634024857Q1601.0382778764724 481.4288488346493 1596.7272218432286 481.4288488346493ZM1697.882335656755 481.4288488346493L1697.882335656755 481.4288488346493Q1684.0622038755432 481.4288488346493 1674.5531281275753 476.51960799296506Q1665.044052379607 471.63099421364086 1660.217319787363 462.7819844611933Q1655.3905871951188 453.9536017711058 1655.3905871951188 442.3611927247759L1655.3905871951188 442.3611927247759Q1655.3905871951188 430.3356153688856 1659.7841514778024 420.4552524984372Q1664.1570886981262 410.5955166903488 1672.036626519653 403.45855311378267Q1679.8955372788196 396.3215895372166 1690.3740849577089 392.46432887589333Q1700.8526326365977 388.60706821457 1713.022599429008 388.60706821457L1713.022599429008 388.60706821457Q1727.4202889563003 388.60706821457 1734.2684736598262 395.00145754617546Q1741.0960313009919 401.3752198154209 1741.0960313009919 411.02868499990916L1741.0960313009919 411.02868499990916Q1741.0960313009919 419.3413911309962 1735.6711139003073 426.7052523935225Q1730.2461964996228 434.0484865936888 1718.2206191437326 438.58644031289265Q1706.195041787842 443.1037669697365 1686.1455371739048 443.2687834686167L1686.1455371739048 443.2687834686167Q1686.5787054834655 452.75723215422477 1690.5184743942286 458.1821495549094Q1694.4582433049923 463.607066955594 1700.3988372646772 463.607066955594L1700.3988372646772 463.607066955594Q1703.36913424452 463.607066955594 1706.6282100974026 462.20442671511285Q1709.9079130126452 460.7811594122716 1712.1356357475274 457.15079643690854Q1714.3633584824092 453.4998063991854 1714.3633584824092 447.12604412993994L1714.3633584824092 447.12604412993994Q1724.4499919764576 447.12604412993994 1730.2461964996228 449.35376686482186Q1736.0424010227875 451.58148959970373 1736.0424010227875 457.3776941228687L1736.0424010227875 457.3776941228687Q1736.0424010227875 462.7201032741133 1731.4425661165037 468.28941011131803Q1726.8427312102199 473.8587169485228 1718.3031273931729 477.633469360406Q1709.7635235761254 481.4288488346493 1697.882335656755 481.4288488346493ZM1687.4862962273064 431.38759554924656L1687.4862962273064 431.38759554924656Q1698.3155039663156 430.48000480540577 1704.8542827344409 427.3653183890431Q1711.393061502567 424.2506319726804 1714.3633584824092 420.248981874837Q1717.333655462252 416.22670471463357 1717.333655462252 412.82323942523067L1717.333655462252 412.82323942523067Q1717.333655462252 409.8529424453881 1715.5391010369303 407.91399858354646Q1713.7651736739685 405.97505472170485 1710.5060978210859 405.97505472170485L1710.5060978210859 405.97505472170485Q1705.1430616074813 405.97505472170485 1700.5432267011975 409.687925946508Q1695.9433917949136 413.4007971713112 1692.6018076925907 419.2795099439162Q1689.2602235902677 425.1375956541612 1687.4862962273064 431.38759554924656Z " fill="#efefef" transform="matrix(0.5025570063599986,0,0,0.5025570063599986,0,80.07255864420152)"/></g></svg>